<svg width="447" height="102" viewBox="0 0 447 102" fill="none" xmlns="http://www.w3.org/2000/svg">
<path fill-rule="evenodd" clip-rule="evenodd" d="M46.8529 94L38.1648 78.9798L58.7212 73.482L46.8529 94ZM67.6567 58.0342L31.6235 67.6712L24.6815 55.6698L77.1397 41.6399L67.6567 58.0342ZM86.0752 26.1921L18.1403 44.3611L0 13L93.7059 13L86.0752 26.1921Z" fill="white"/>
<path d="M164.092 51.1729C164.092 56.9118 163.077 61.9434 161.049 66.2676C159.02 70.5918 156.111 73.9284 152.32 76.2773C148.557 78.6263 144.232 79.8008 139.348 79.8008C134.516 79.8008 130.205 78.6396 126.415 76.3174C122.625 73.9951 119.688 70.6852 117.606 66.3877C115.524 62.0635 114.47 57.0986 114.443 51.4932V48.6104C114.443 42.8714 115.471 37.8265 117.526 33.4756C119.608 29.098 122.531 25.748 126.295 23.4258C130.085 21.0768 134.41 19.9023 139.268 19.9023C144.126 19.9023 148.437 21.0768 152.2 23.4258C155.991 25.748 158.913 29.098 160.969 33.4756C163.051 37.8265 164.092 42.8581 164.092 48.5703V51.1729ZM151.92 48.5303C151.92 42.4176 150.826 37.7731 148.637 34.5967C146.448 31.4202 143.325 29.832 139.268 29.832C135.237 29.832 132.127 31.4069 129.938 34.5566C127.75 37.6797 126.642 42.2708 126.615 48.3301V51.1729C126.615 57.1253 127.71 61.7432 129.898 65.0264C132.087 68.3096 135.237 69.9512 139.348 69.9512C143.378 69.9512 146.475 68.3763 148.637 65.2266C150.799 62.0501 151.893 57.4323 151.92 51.373V48.5303ZM211.058 57.7393C211.058 64.4124 209.536 69.7643 206.493 73.7949C203.477 77.7988 199.393 79.8008 194.241 79.8008C189.864 79.8008 186.327 78.2793 183.631 75.2363V95.6562H172.06V35.6777H182.79L183.19 39.9219C185.993 36.5586 189.65 34.877 194.161 34.877C199.5 34.877 203.65 36.8522 206.613 40.8027C209.576 44.7533 211.058 50.1986 211.058 57.1387V57.7393ZM199.486 56.8984C199.486 52.8678 198.766 49.7581 197.324 47.5693C195.91 45.3805 193.841 44.2861 191.118 44.2861C187.488 44.2861 184.992 45.6742 183.631 48.4502V66.1875C185.046 69.0436 187.568 70.4717 191.198 70.4717C196.724 70.4717 199.486 65.9473 199.486 56.8984ZM238.204 79.8008C231.851 79.8008 226.673 77.8522 222.669 73.9551C218.692 70.0579 216.703 64.8662 216.703 58.3799V57.2588C216.703 52.9079 217.544 49.0241 219.226 45.6074C220.907 42.1641 223.283 39.5215 226.353 37.6797C229.449 35.8112 232.972 34.877 236.923 34.877C242.849 34.877 247.507 36.7454 250.896 40.4824C254.313 44.2194 256.021 49.5179 256.021 56.3779V61.1025H228.435C228.808 63.932 229.929 66.2008 231.798 67.9092C233.693 69.6175 236.082 70.4717 238.965 70.4717C243.423 70.4717 246.906 68.8568 249.415 65.627L255.101 71.9932C253.366 74.4489 251.017 76.3708 248.054 77.7588C245.091 79.1201 241.808 79.8008 238.204 79.8008ZM236.883 44.2461C234.587 44.2461 232.719 45.0202 231.277 46.5684C229.863 48.1165 228.955 50.332 228.555 53.2148H244.65V52.2939C244.597 49.7314 243.903 47.7562 242.568 46.3682C241.234 44.9535 239.339 44.2461 236.883 44.2461ZM273.278 35.6777L273.639 40.6826C276.735 36.8122 280.886 34.877 286.091 34.877C290.682 34.877 294.099 36.2249 296.341 38.9209C298.583 41.6169 299.731 45.6475 299.784 51.0127V79H288.213V51.293C288.213 48.8372 287.679 47.0622 286.611 45.9678C285.544 44.8467 283.769 44.2861 281.286 44.2861C278.03 44.2861 275.587 45.6742 273.959 48.4502V79H262.388V35.6777H273.278ZM330.895 64.5459L344.107 20.7031H357.48L337.181 79H324.648L304.429 20.7031H317.762L330.895 64.5459ZM387.069 74.5957C384.213 78.0658 380.263 79.8008 375.218 79.8008C370.573 79.8008 367.023 78.4661 364.567 75.7969C362.138 73.1276 360.897 69.2171 360.844 64.0654V35.6777H372.415V63.665C372.415 68.1761 374.47 70.4316 378.581 70.4316C382.505 70.4316 385.201 69.0703 386.669 66.3477V35.6777H398.28V79H387.39L387.069 74.5957ZM426.948 79.8008C420.595 79.8008 415.417 77.8522 411.413 73.9551C407.436 70.0579 405.447 64.8662 405.447 58.3799V57.2588C405.447 52.9079 406.288 49.0241 407.97 45.6074C409.651 42.1641 412.027 39.5215 415.097 37.6797C418.193 35.8112 421.716 34.877 425.667 34.877C431.593 34.877 436.251 36.7454 439.641 40.4824C443.057 44.2194 444.766 49.5179 444.766 56.3779V61.1025H417.179C417.552 63.932 418.674 66.2008 420.542 67.9092C422.437 69.6175 424.826 70.4717 427.709 70.4717C432.167 70.4717 435.65 68.8568 438.159 65.627L443.845 71.9932C442.11 74.4489 439.761 76.3708 436.798 77.7588C433.835 79.1201 430.552 79.8008 426.948 79.8008ZM425.627 44.2461C423.331 44.2461 421.463 45.0202 420.021 46.5684C418.607 48.1165 417.699 50.332 417.299 53.2148H433.395V52.2939C433.341 49.7314 432.647 47.7562 431.312 46.3682C429.978 44.9535 428.083 44.2461 425.627 44.2461Z" fill="white"/>
</svg>
